<?xml version="1.0" standalone="no"?>
<!DOCTYPE svg PUBLIC "-//W3C//DTD SVG 20010904//EN"
 "http://www.w3.org/TR/2001/REC-SVG-20010904/DTD/svg10.dtd">
<svg version="1.0" xmlns="http://www.w3.org/2000/svg"
 width="225.000000pt" height="225.000000pt" viewBox="0 0 225.000000 225.000000"
 preserveAspectRatio="xMidYMid meet">
<metadata>
Created by potrace 1.11, written by Peter Selinger 2001-2013
</metadata>
<g transform="translate(0.000000,225.000000) scale(0.100000,-0.100000)"
fill="#000000" stroke="none">
<path d="M810 2105 c-41 -8 -87 -16 -103 -20 -45 -9 -197 -66 -203 -76 -3 -5
23 -10 58 -10 79 -2 105 -5 159 -19 55 -15 111 -43 129 -65 13 -15 11 -16 -21
-10 -49 9 -164 10 -234 1 -107 -13 -213 -76 -251 -149 -15 -28 -15 -28 13 -20
59 17 166 9 216 -16 27 -13 45 -27 40 -31 -4 -4 -37 -14 -73 -24 -139 -37
-305 -142 -352 -223 l-18 -30 39 19 c21 10 55 20 76 22 35 4 95 -10 95 -21 0
-3 -19 -24 -41 -47 -182 -181 -308 -386 -326 -528 l-5 -37 54 53 c48 48 112
107 209 191 19 17 61 52 94 78 33 26 67 53 75 59 8 7 75 53 150 103 338 226
734 366 1013 360 37 -1 67 0 67 1 0 2 -15 24 -32 49 -62 88 -62 90 -23 93 48
4 127 -40 179 -100 l41 -48 89 0 89 0 -44 41 c-72 66 -225 178 -314 230 -152
87 -305 145 -465 174 -72 13 -305 13 -380 0z"/>
<path d="M1830 1542 c-207 -14 -470 -92 -700 -207 -218 -108 -378 -223 -556
-400 -172 -171 -270 -296 -380 -485 -67 -113 -150 -288 -141 -296 1 -2 34 24
72 57 468 407 934 713 1278 840 195 72 381 86 501 38 80 -31 165 -115 205
-199 l29 -63 30 94 c77 242 65 430 -34 533 -55 58 -189 97 -304 88z"/>
</g>
</svg>
